<?xml version="1.0" standalone="no"?>
<!DOCTYPE svg PUBLIC "-//W3C//DTD SVG 20010904//EN"
 "http://www.w3.org/TR/2001/REC-SVG-20010904/DTD/svg10.dtd">
<svg version="1.0" xmlns="http://www.w3.org/2000/svg"
 width="276.000000pt" height="276.000000pt" viewBox="0 0 276.000000 276.000000"
 preserveAspectRatio="xMidYMid meet">

<g transform="translate(0.000000,276.000000) scale(0.100000,-0.100000)"
fill="#000000" stroke="none">
<path d="M1160 2435 c-172 -56 -600 -193 -780 -250 -58 -18 -98 -36 -90 -39
27 -10 419 -113 745 -195 l320 -81 400 101 c220 56 423 106 450 112 28 5 64
15 80 22 17 7 54 18 83 25 28 7 54 15 57 19 2 4 -22 15 -53 25 -31 10 -147 46
-257 81 -644 204 -745 235 -767 234 -12 0 -97 -24 -188 -54z"/>
<path d="M2253 2069 c-21 -8 -23 -15 -23 -80 0 -51 -5 -77 -15 -89 -20 -22
-47 -151 -43 -204 3 -38 6 -42 41 -50 47 -12 106 2 122 29 17 27 -13 212 -38
229 -12 10 -17 32 -19 93 -3 79 -3 80 -25 72z"/>
<path d="M712 1809 l3 -123 305 -98 c168 -54 316 -99 330 -99 14 -1 129 33
255 74 127 42 266 87 310 100 l80 25 3 121 c1 67 -1 121 -6 121 -4 0 -42 -9
-83 -19 -41 -11 -181 -47 -312 -80 l-238 -61 -147 36 c-179 43 -460 113 -485
120 -16 5 -17 -3 -15 -117z"/>
<path d="M417 1654 c-93 -31 -167 -57 -165 -60 6 -6 154 -96 283 -172 61 -35
241 -135 400 -222 160 -86 312 -170 339 -187 l49 -31 101 45 c55 24 155 69
221 100 279 129 336 155 445 204 99 45 169 63 184 48 2 -2 6 -40 8 -83 l3 -80
-34 -23 c-19 -13 -44 -23 -56 -23 -27 0 -322 -226 -311 -238 2 -2 113 34 246
80 306 105 296 95 293 274 -2 140 -20 194 -70 212 -15 5 -88 31 -161 56 l-132
48 -93 -31 c-50 -17 -99 -36 -107 -42 -12 -9 -12 -10 4 -5 11 4 49 12 85 18
55 9 75 8 116 -4 90 -29 159 -56 162 -65 4 -12 -519 -269 -735 -362 l-163 -70
-57 31 c-31 17 -91 50 -132 73 -41 23 -113 61 -160 85 -88 44 -332 180 -504
282 -55 32 -105 58 -113 58 -7 0 -13 6 -13 13 0 8 47 32 109 56 97 38 162 71
136 70 -5 0 -86 -25 -178 -55z"/>
<path d="M338 1360 c-43 -14 -78 -27 -77 -30 0 -3 115 -70 256 -150 141 -80
326 -185 412 -234 86 -48 213 -120 283 -158 l128 -69 82 33 c68 27 107 52 218
143 74 61 156 126 182 145 48 34 57 53 15 32 -83 -42 -262 -122 -371 -167
l-129 -52 -46 27 c-25 15 -82 49 -126 76 -44 26 -125 71 -180 99 -55 28 -125
67 -155 86 -30 20 -102 63 -160 96 -58 34 -139 81 -180 105 l-75 44 -77 -26z"/>
<path d="M345 951 l-80 -28 -7 -69 c-10 -95 0 -206 22 -241 13 -23 38 -37 116
-65 120 -44 544 -197 785 -283 l177 -64 163 55 c89 30 169 58 176 63 11 6 -2
18 -49 47 l-63 40 -110 -38 -110 -39 -370 132 c-399 142 -594 215 -604 225 -8
8 -8 151 1 159 3 3 93 -27 200 -69 106 -41 321 -125 477 -185 156 -61 288
-111 292 -111 5 0 57 16 114 36 l105 37 66 84 c36 46 64 86 63 88 -2 2 -76
-21 -164 -51 -95 -32 -170 -53 -186 -50 -28 5 -141 48 -607 232 -171 68 -315
124 -320 123 -4 0 -43 -13 -87 -28z"/>
<path d="M2340 945 c-52 -19 -128 -46 -167 -61 -40 -14 -71 -29 -68 -34 2 -4
33 -24 67 -44 l62 -37 103 36 103 37 0 69 c0 38 -1 69 -2 69 -2 -1 -46 -16
-98 -35z"/>
<path d="M1973 816 c-35 -17 -46 -29 -57 -64 -9 -24 -28 -60 -44 -80 -16 -20
-47 -65 -70 -99 l-42 -61 63 -43 c34 -23 67 -48 72 -55 18 -24 56 -31 104 -19
36 9 53 21 80 56 18 24 54 69 80 99 26 30 59 72 74 92 l27 37 -57 39 c-32 22
-87 57 -123 79 l-65 39 -42 -20z m70 -48 c18 -12 50 -38 73 -58 22 -21 47 -39
55 -42 19 -7 4 -32 -79 -132 -67 -82 -125 -127 -130 -102 -3 15 43 96 95 165
18 24 33 47 33 50 0 4 -31 29 -70 56 -71 51 -84 70 -52 78 33 9 44 7 75 -15z"/>
<path d="M1860 778 c-14 -5 -38 -21 -53 -36 -52 -49 -212 -255 -201 -259 6 -2
57 -35 114 -73 102 -69 103 -70 141 -58 41 12 44 15 30 37 -6 9 -18 11 -34 7
-19 -4 -38 4 -83 37 -79 58 -88 70 -74 97 17 32 169 218 181 222 6 2 10 11 8
20 -3 12 -9 14 -29 6z"/>
<path d="M2360 675 c-62 -21 -68 -27 -119 -99 -29 -43 -51 -79 -49 -82 3 -2
60 15 126 38 l122 43 0 62 c0 35 -3 63 -7 62 -5 0 -37 -11 -73 -24z"/>
</g>
</svg>
